<svg xmlns="http://www.w3.org/2000/svg" viewBox="0 0 500 500" width="100%" height="100%">
  <path d="M 250, 60 A 190,190 0 0,1 440,250" fill="none" id="textPathTop" />
  <path d="M 60, 250 A 190,190 0 0,0 440,250" fill="none" id="textPathBottom" />
  
  <text fill="#ffffff" font-family="sans-serif" font-size="28" font-weight="bold" letter-spacing="4">
    <textPath href="#textPathTop" startOffset="50%" text-anchor="middle">
      BAILA COMO SI NADIE TE
    </textPath>
  </text>
  
  <text fill="#ffffff" font-family="sans-serif" font-size="28" font-weight="bold" letter-spacing="4">
    <textPath href="#textPathBottom" startOffset="50%" text-anchor="middle">
      ESTUVIERA MIRANDO
    </textPath>
  </text>

  <!-- Bailarina Silueta en Verde Agua / Turquesa -->
  <g fill="#00e5ff" transform="translate(100, 120) scale(0.6)">
    <path d="M 250 100 C 270 120 280 150 250 180 C 220 210 210 240 240 270 C 270 300 320 280 370 250 C 350 290 310 320 260 310 C 210 300 180 260 190 220 C 170 200 140 190 110 200 C 150 170 190 170 220 180 C 240 160 240 120 250 100 Z" />
  </g>
</svg>
